<svg width="48" height="47" viewBox="0 0 48 47" fill="none" xmlns="http://www.w3.org/2000/svg">
<path d="M24.2107 44.129L26.818 41.7335C28.7217 41.4031 30.5427 40.7423 32.2809 39.875C34.4329 38.7186 36.3367 37.1905 37.9093 35.3319C39.4406 33.4734 40.6408 31.2845 41.3443 28.9717C42.0479 26.6588 42.2962 24.1808 42.0893 21.7854C41.9237 19.9269 41.4271 18.0683 40.7235 16.3337L43.7033 17.2423L44.9035 13.4014C46.1037 15.8794 46.8486 18.5639 47.0969 21.2898C47.3866 24.346 47.0555 27.4848 46.1451 30.4172C45.2346 33.3495 43.7447 36.1167 41.7996 38.5121C39.8544 40.9075 37.3713 42.8899 34.6812 44.2942C32.2395 45.5745 29.5494 46.4418 26.7766 46.8135L24.2107 44.129Z" fill="#0261BA"/>
<path d="M5.38011 13.5249L6.16644 17.0767C6.04228 17.4072 5.91813 17.7376 5.83536 18.068C5.1318 20.3808 4.88349 22.8588 5.09042 25.2543C5.29734 27.6497 6.04228 30.0451 7.15969 32.1927C8.31849 34.3404 9.84976 36.2402 11.7121 37.8096C13.5745 39.3377 15.7679 40.5354 18.0855 41.2376C19.1201 41.568 20.1962 41.7745 21.2308 41.8984L18.996 43.9634L21.8102 46.9783C20.0306 46.8544 18.2924 46.524 16.5956 45.9871C13.6572 45.0785 10.8844 43.5917 8.48403 41.6506C6.08367 39.7094 4.09716 37.2314 2.69005 34.5469C1.32433 31.821 0.413843 28.8061 0.124143 25.7499C-0.165556 22.6936 0.165529 19.5548 1.07601 16.6224C1.32433 15.8377 1.61402 15.053 1.94511 14.3096L5.38011 13.5249Z" fill="#0261BA"/>
<path d="M41.2613 12.6989L37.8263 11.6664C37.0814 10.799 36.295 9.97303 35.3845 9.27092C33.5222 7.7428 31.3288 6.54509 29.0112 5.84298C26.6936 5.14087 24.2104 4.89307 21.8101 5.09957C19.4097 5.30607 17.0093 6.04948 14.8573 7.16459C12.7052 8.32101 10.8015 9.84913 9.22885 11.7077C9.06331 11.8729 8.93915 12.0794 8.81499 12.2446L8.15282 9.18832L4.22119 10.0556C4.59366 9.51872 4.96613 9.02312 5.37999 8.52751C7.32511 6.13208 9.80825 4.14966 12.4983 2.74544C15.2711 1.29992 18.2509 0.391309 21.3548 0.102205C24.4174 -0.186898 27.5627 0.143506 30.501 1.05212C33.4394 1.91943 36.2123 3.40625 38.5712 5.34737C39.937 6.50379 41.2199 7.7841 42.2959 9.18832L41.2613 12.6989Z" fill="#0261BA"/>
</svg>
